<?xml version="1.0" encoding="iso-8859-1"?>
<!-- Generator: Adobe Illustrator 19.0.0, SVG Export Plug-In . SVG Version: 6.00 Build 0)  -->
<svg version="1.1" id="Capa_1" xmlns="http://www.w3.org/2000/svg" xmlns:xlink="http://www.w3.org/1999/xlink" x="0px" y="0px"
	 viewBox="0 0 368 368" style="enable-background:new 0 0 368 368;" xml:space="preserve">
<path style="fill:#CCE4FF;" d="M360,183.999l-160,128v-80H16c-4.4,0-8-3.6-8-8v-80c0-4.4,3.6-8,8-8h184v-80L360,183.999z"/>
<path style="fill:#007AFF;" d="M16,239.999h176v72c0,3.072,1.768,5.88,4.528,7.208c1.112,0.528,2.296,0.792,3.472,0.792
	c1.784,0,3.552-0.6,5-1.752l160-128c1.896-1.52,3-3.816,3-6.248s-1.104-4.728-3-6.248l-160-128c-2.408-1.92-5.712-2.288-8.472-0.968
	c-2.76,1.336-4.528,4.144-4.528,7.216v72H16c-8.824,0-16,7.176-16,16v80C0,232.823,7.176,239.999,16,239.999z M16.024,143.999H200
	c4.424,0,8-3.584,8-8V72.647l139.192,111.352L208,295.351v-63.352c0-4.416-3.576-8-8-8H16L16.024,143.999z"/>
<g>
</g>
<g>
</g>
<g>
</g>
<g>
</g>
<g>
</g>
<g>
</g>
<g>
</g>
<g>
</g>
<g>
</g>
<g>
</g>
<g>
</g>
<g>
</g>
<g>
</g>
<g>
</g>
<g>
</g>
</svg>
